<?xml version="1.0" encoding="UTF-8"?>
<svg id="flat" xmlns="http://www.w3.org/2000/svg" viewBox="0 0 582.11 846.62">
  <defs>
    <style>
      .cls-1 {
        fill: #0e5fd8;
      }

      .cls-2 {
        fill: #02d1f7;
      }
    </style>
  </defs>
  <path class="cls-1" d="M294.16,704.39c-11.04,12.01-29.48,33.82-55.19,54.8-27.73,22.62-43.34,39.86-84.86,39.86-58.84,0-106.54-47.7-106.54-106.54s47.7-106.54,106.54-106.54c41.52,0,57.18,17.09,84.86,39.48,25.2,20.38,44.3,42.78,55.61,54.95h68.34c-45.07-45.51-86.3-80.86-108.61-99.78-17.26-14.64-36.9-26.28-58.21-33.93-13.05-4.68-27.73-8.29-42-8.29C69,538.4,0,607.39,0,692.51s69,154.11,154.11,154.11c13.49,0,27.18-2.96,39.51-6.97,22.49-7.3,43.26-19.07,61.44-34.18,23.49-19.53,65.73-55.43,107.93-101.08h-68.82Z"/>
  <path class="cls-1" d="M364.35,650.13h34.04l42.7,42.44-42.7,42.31h-34.04l40.68-39.15c1.83-1.76,1.83-4.69,0-6.45l-40.68-39.15Z"/>
  <path class="cls-2" d="M428,538.4c-45.71,0-91.72,28.56-119.94,60.17l32.42,29.94c19.45-21.73,56.06-41.99,87.52-41.99,58.67,0,106.23,47.56,106.23,106.23s-47.56,106.23-106.23,106.23c-31.42,0-68.07-20.72-87.52-42.41l-32.42,30.59c28.21,31.38,74.42,59.45,119.94,59.45,85.11,0,154.11-69,154.11-154.11s-69-154.11-154.11-154.11Z"/>
</svg>